<svg width="194" height="69" viewBox="0 0 194 69" fill="none" xmlns="http://www.w3.org/2000/svg">
<g clip-path="url(#clip0_763_6384)">
<path d="M192.171 29.0409C190.929 26.916 189.206 25.217 187.054 24.001C185.057 22.8683 182.817 22.2976 180.404 22.2976C180.183 22.2976 179.958 22.302 179.732 22.3108C178.667 22.3547 177.589 22.539 176.507 22.8551C176.498 22.6532 176.485 22.4556 176.471 22.2581C176.326 20.041 175.698 18.184 174.602 16.7353C173.674 15.5148 171.841 14.0573 168.328 14.0573C165.999 14.0792 164.148 14.6499 162.822 15.7606C162.672 15.8836 162.531 16.0197 162.394 16.1558C162.12 15.8002 161.788 15.4797 161.391 15.2207L160.609 14.7202L160.578 13.8114C160.52 11.6778 158.788 10.0052 156.636 10.0052C155.735 10.0052 154.847 10.3212 154.148 10.8876L153.433 11.4671L152.558 11.2124C152.191 11.1071 151.815 11.05 151.435 11.05C150.136 11.05 148.921 11.691 148.188 12.7578C147.454 13.8246 147.295 15.1811 147.768 16.3797L148.099 17.2357L147.578 17.9996C146.752 19.2025 146.668 20.7479 147.353 22.0342C147.759 22.7981 148.391 23.3907 149.147 23.7463C148.935 23.9351 148.731 24.1327 148.537 24.3478C147.746 25.217 147.136 26.3277 146.699 27.6931C145.568 26.1916 144.158 24.9492 142.483 24.0053C140.486 22.8727 138.246 22.302 135.833 22.302C135.612 22.302 135.387 22.3064 135.162 22.3151C134.097 22.359 133.019 22.5434 131.936 22.8595C131.927 22.6576 131.914 22.46 131.901 22.2625C131.755 20.0454 131.127 18.1884 130.032 16.7396C129.104 15.5192 127.27 14.0617 123.757 14.0617C121.429 14.0836 119.577 14.6543 118.252 15.765C116.913 16.8845 116.055 18.5089 115.706 20.5942C115.592 21.2835 115.503 22.0561 115.441 22.9034C114.482 22.1922 113.17 21.6303 111.367 21.481C110.978 21.4547 110.594 21.4415 110.236 21.4415C108.349 21.4415 106.851 21.8059 105.645 22.5522C105.468 22.662 105.301 22.7761 105.137 22.8946C105.08 22.8639 105.022 22.8376 104.96 22.8068C103.387 22.0298 101.253 21.6566 98.4251 21.6566H98.2263L98.0893 21.661C94.2584 21.8498 90.9665 23.6454 88.5362 26.8502C88.5274 26.3541 88.5186 25.8536 88.5097 25.3443C88.492 22.3151 88.0369 19.9576 87.1223 18.1357C86.4153 16.7309 84.5727 14.3734 80.185 14.3426H80.0083C75.9608 14.3426 74.0122 16.2962 73.0931 17.9382C72.0768 19.7513 71.5201 22.3503 71.3964 25.8799C71.2461 28.7292 71.1268 31.4993 71.0473 34.1071C70.9633 36.7895 70.9722 39.6738 71.0782 42.6415C71.1136 44.2176 71.3036 45.7146 71.6394 47.0888C72.068 48.8317 72.881 50.2848 74.0652 51.4087C75.4041 52.6862 77.2024 53.3447 79.4162 53.3711H79.4471C82.9732 53.3711 85.4609 52.3087 86.8439 50.2145C87.2283 49.6307 87.5465 48.9809 87.8027 48.2653C88.8455 49.7975 90.096 51.0443 91.5453 51.9662C93.4056 53.1516 95.4249 53.7837 97.6033 53.8452H97.8905C100.467 53.8452 102.702 53.3535 104.536 52.3833C104.731 52.2779 104.921 52.1726 105.106 52.0628C106.458 53.4545 108.371 54.1569 110.797 54.1569C113.965 54.1569 115.764 52.8003 116.714 51.6589C117.271 50.9916 117.69 50.175 117.991 49.2048C118.309 49.5648 118.654 49.9072 119.038 50.2145C120.708 51.5579 122.719 52.4799 125.003 52.9628C126.673 53.314 128.33 53.4896 129.93 53.4896C130.301 53.4896 130.672 53.4808 131.039 53.4633C136.973 53.2701 141.516 51.7818 144.534 49.038C145.271 48.3707 145.921 47.6156 146.491 46.7771C146.853 48.5024 147.472 49.8809 148.364 50.9521C149.752 52.6203 151.868 53.4633 154.652 53.4633H154.825C157.56 53.4633 159.694 52.6116 161.156 50.9389C161.647 50.377 162.053 49.7316 162.38 49.0029C162.747 49.4419 163.149 49.8458 163.604 50.2102C165.275 51.5535 167.285 52.4755 169.57 52.9584C171.24 53.3096 172.897 53.4852 174.496 53.4852C174.867 53.4852 175.239 53.4764 175.605 53.4589C181.54 53.2657 186.082 51.7774 189.1 49.0336C192.211 46.2063 193.854 41.8908 194 36.1748C194.04 33.5978 193.421 31.2096 192.171 29.0672V29.0409Z" fill="white"/>
<path d="M85.3988 25.34C85.5491 32.9042 85.58 38.9055 85.4872 43.3527C85.4253 45.6049 85.01 47.317 84.2367 48.4892C83.4635 49.6614 81.8683 50.2453 79.4514 50.2453C78.0551 50.2321 76.9813 49.8633 76.2302 49.1477C75.479 48.4321 74.962 47.4926 74.6748 46.3293C74.3876 45.1659 74.233 43.9059 74.202 42.5493C74.096 39.5948 74.0871 36.807 74.1667 34.1817C74.2506 31.5564 74.3655 28.8257 74.5157 25.9941C74.6218 22.9824 75.0548 20.7918 75.8237 19.4264C76.5925 18.0611 78.0286 17.3938 80.1451 17.4245C82.2484 17.4377 83.6446 18.1313 84.3339 19.5054C85.0233 20.8796 85.3767 22.8244 85.39 25.3443L85.3988 25.34Z" fill="#333A95"/>
<path d="M110.802 51.0267C109.193 51.0267 108.022 50.614 107.276 49.7975C106.533 48.9765 106.162 48.0151 106.162 46.9132C105.53 47.958 104.501 48.858 103.065 49.6219C101.629 50.3814 99.8258 50.7458 97.6474 50.7194C96.0876 50.6755 94.6162 50.2145 93.2332 49.3321C91.8502 48.4497 90.7013 47.181 89.7778 45.5171C88.8543 43.8532 88.3197 41.7986 88.1694 39.3533C88.0325 35.1036 88.925 31.6398 90.8383 28.9706C92.7516 26.3014 95.226 24.8922 98.2572 24.7429C100.656 24.7297 102.433 25.0063 103.582 25.5726C104.73 26.139 105.415 26.6702 105.645 27.1619C105.915 26.3585 106.471 25.6912 107.311 25.1687C108.15 24.6463 109.436 24.4444 111.16 24.5629C112.781 24.699 113.908 25.3356 114.54 26.477C115.172 27.6184 115.53 29.2779 115.622 31.4554C115.667 32.8735 115.653 34.95 115.578 37.6851C115.503 40.4201 115.459 42.7074 115.441 44.5425C115.454 47.0317 115.079 48.7395 114.314 49.6526C113.55 50.5701 112.379 51.0267 110.802 51.0267ZM104.744 40.2665C104.863 39.4762 104.885 38.5192 104.81 37.3909C104.735 36.2626 104.695 35.3758 104.695 34.7173C104.169 34.0456 103.387 33.6198 102.344 33.431C101.302 33.2466 100.36 33.4837 99.5297 34.1466C98.6946 34.8095 98.3234 36.0827 98.4162 37.9616C98.5974 39.5728 99.11 40.6791 99.9583 41.285C100.807 41.8908 101.699 42.0884 102.636 41.8776C103.573 41.6669 104.275 41.1313 104.744 40.2665Z" fill="#333A95"/>
<path d="M118.862 43.4186C118.574 35.4241 118.442 29.7345 118.455 26.3453C118.455 24.181 118.565 22.4293 118.791 21.0859C119.016 19.7425 119.507 18.7547 120.267 18.1225C121.022 17.4904 122.198 17.1655 123.793 17.1479C125.565 17.1479 126.815 17.6308 127.544 18.5923C128.273 19.5537 128.689 20.84 128.795 22.4512C128.901 24.0624 128.909 25.8229 128.817 27.7326C131.053 26.2707 133.213 25.4936 135.303 25.4058C137.389 25.318 139.271 25.7438 140.946 26.6921C142.621 27.6404 143.942 28.9399 144.909 30.595C145.877 32.2501 146.345 34.0851 146.314 36.1002C146.195 40.9338 144.901 44.4722 142.431 46.7156C139.96 48.959 136.121 50.1663 130.911 50.3287C129.214 50.4165 127.46 50.2716 125.653 49.8941C123.846 49.5121 122.295 48.8053 121.005 47.7692C119.714 46.7332 118.999 45.2844 118.866 43.4186H118.862ZM129.426 34.3793V38.2294C129.426 39.586 129.488 40.6704 129.608 41.4738C131.543 41.8338 133.182 41.6406 134.53 40.903C135.873 40.1655 136.51 38.6772 136.434 36.4383C136.359 35.5866 136.006 34.8666 135.374 34.2783C134.742 33.69 133.911 33.3739 132.873 33.3256C131.839 33.2817 130.69 33.6329 129.426 34.3793Z" fill="#333A95"/>
<path d="M163.427 43.4186C163.14 35.4241 163.008 29.7345 163.021 26.3453C163.021 24.181 163.131 22.4293 163.357 21.0859C163.582 19.7425 164.073 18.7547 164.833 18.1225C165.588 17.4904 166.763 17.1655 168.359 17.1479C170.13 17.1479 171.381 17.6308 172.11 18.5923C172.839 19.5537 173.254 20.84 173.361 22.4512C173.467 24.0624 173.475 25.8229 173.383 27.7326C175.618 26.2707 177.779 25.4936 179.869 25.4058C181.955 25.318 183.837 25.7438 185.512 26.6921C187.186 27.6404 188.508 28.9399 189.475 30.595C190.443 32.2501 190.911 34.0851 190.88 36.1002C190.761 40.9338 189.466 44.4722 186.996 46.7156C184.526 48.959 180.687 50.1663 175.477 50.3287C173.78 50.4165 172.026 50.2716 170.219 49.8941C168.412 49.5121 166.861 48.8053 165.57 47.7692C164.28 46.7332 163.564 45.2844 163.432 43.4186H163.427ZM173.988 34.3793V38.2294C173.988 39.586 174.05 40.6704 174.169 41.4738C176.104 41.8338 177.744 41.6406 179.091 40.903C180.435 40.1655 181.071 38.6772 180.996 36.4383C180.921 35.5866 180.567 34.8666 179.935 34.2783C179.304 33.69 178.473 33.3739 177.434 33.3256C176.401 33.2817 175.252 33.6329 173.988 34.3793Z" fill="#333A95"/>
<path d="M150.158 19.7425L151.36 17.9865C151.515 17.7626 151.546 17.486 151.449 17.2313L150.68 15.2558C150.432 14.628 151.02 13.987 151.674 14.1758L153.724 14.7729C153.985 14.8475 154.263 14.7904 154.471 14.6236L156.123 13.2846C156.649 12.8544 157.445 13.2144 157.462 13.8904L157.529 16.0109C157.537 16.2787 157.679 16.5289 157.904 16.6738L159.703 17.824C160.277 18.1928 160.18 19.0489 159.535 19.2772L157.529 19.9928C157.272 20.0849 157.078 20.2913 157.012 20.5503L156.464 22.6005C156.287 23.2546 155.439 23.4258 155.019 22.8902L153.711 21.2132C153.543 21.0025 153.282 20.8839 153.017 20.8971L150.887 21.02C150.211 21.0552 149.778 20.3045 150.163 19.7469L150.158 19.7425Z" fill="#F19725"/>
<path d="M160.096 31.5608C160.308 36.6007 160.352 40.8372 160.233 44.2703C160.127 46.3732 159.649 47.9097 158.801 48.8799C157.953 49.8502 156.627 50.3331 154.824 50.3331C152.92 50.3638 151.568 49.8985 150.772 48.9458C149.977 47.9931 149.491 46.4917 149.31 44.4503C149.115 42.7337 148.987 40.9689 148.925 39.1601C148.864 37.347 148.903 35.0861 149.036 32.3686C149.217 29.5325 149.822 27.5526 150.848 26.4287C151.877 25.3004 153.278 24.7605 155.045 24.8087C156.861 24.8834 158.147 25.5858 158.907 26.9116C159.667 28.2375 160.06 29.7916 160.091 31.5652L160.096 31.5608Z" fill="#333A95"/>
<path d="M63.8757 12.7622L62.1348 11.5812L60.1685 12.3407C59.8989 12.4417 59.6206 12.4944 59.3422 12.4944C58.6308 12.4944 57.9548 12.1563 57.5261 11.5856C57.0931 11.0149 56.965 10.2905 57.1638 9.60126L57.7559 7.59057L56.4259 5.9706C55.8736 5.29891 55.7587 4.39454 56.1166 3.6087C56.4789 2.81848 57.2434 2.31361 58.1138 2.28727L58.432 2.27849C56.258 0.842908 53.6598 0.00438926 50.8717 0.00438926H17.3122C9.76074 -8.95001e-07 3.5835 6.13743 3.5835 13.6402V47.9668C3.5835 55.4696 9.76074 61.607 17.3122 61.607H50.8761C58.4275 61.607 64.6048 55.4696 64.6048 47.9668V13.6402C64.6048 13.4514 64.596 13.267 64.5915 13.0783C64.3397 13.0124 64.0966 12.9114 63.8757 12.7622Z" fill="white"/>
<path d="M50.0761 8.50811C61.4894 21.7532 50.6461 41.3113 49.8729 43.8532C48.6754 39.5026 49.7624 33.9359 47.531 30.8145C46.1214 28.8433 46.5059 26.038 45.0124 24.4619C43.9563 23.3424 42.9312 22.3459 42.0298 21.5074C42.4098 20.1157 43.8503 14.7465 44.4114 12.0597C44.8224 10.0842 45.737 3.47261 50.0761 8.50811Z" fill="#333A95"/>
<path d="M56.6426 58.3934C56.6426 58.3934 56.2714 59.0212 55.7235 59.3241C54.7426 59.8641 52.9751 59.9168 51.3977 58.1168C50.6642 57.2783 50.8497 55.8164 51.5435 54.8988C51.7423 54.6354 51.9677 54.394 52.1974 54.1569C54.0533 52.2735 55.9091 50.3901 57.7737 48.5199C58.0256 48.2697 58.3172 48.0458 58.6265 47.8702C59.0286 47.6419 59.4705 47.6551 59.8903 47.8614C60.6945 48.2565 60.827 49.0248 60.7873 49.6307C60.7607 50.0345 60.6459 50.4297 60.4647 50.794L56.6382 58.389L56.6426 58.3934Z" fill="#F19725"/>
<path d="M52.2063 36.267C52.3963 37.729 52.5288 39.1953 52.5465 40.666C52.5597 41.6625 52.5244 42.6591 52.4183 43.6557C52.3211 44.6039 52.1797 45.5346 51.9942 46.4566C51.4772 49.0204 50.6023 51.4789 49.3032 53.8057C48.6183 55.0349 47.7258 56.0973 46.6432 57.0061C46.4134 57.1993 46.2013 57.4144 45.9583 57.5856C45.0525 58.231 44.0981 58.7314 43.095 59.109C41.8446 59.5787 40.5234 59.8509 39.1404 59.9563C35.5038 60.2329 31.9999 59.8246 28.6108 58.7446C27.4884 58.389 26.3838 57.9588 25.288 57.4583C22.7207 56.2817 20.2772 54.9032 18.0502 53.1647C16.4728 51.9355 14.9881 50.6009 13.6493 49.117C13.4549 48.9019 13.2604 48.6824 13.0704 48.4629C12.5667 47.879 12.0807 47.2819 11.599 46.6761C11.0511 45.9868 10.5121 45.28 10.026 44.5425C8.70041 42.5274 7.37924 40.5123 6.46458 38.2646C5.29807 35.4022 4.60876 32.4476 4.62643 29.3482C4.63085 27.9784 4.86946 26.635 5.16551 25.3048C5.4483 24.0361 5.78412 22.7761 6.11109 21.5161C6.32761 20.6776 6.24365 19.9093 5.66481 19.2376C5.53667 19.0884 5.39528 18.9523 5.24504 18.825C5.1169 18.7196 4.98434 18.623 4.83853 18.5396C4.77667 18.5045 4.71923 18.4694 4.65736 18.4386C4.61318 18.4167 4.56899 18.3947 4.52481 18.3728C3.96364 18.1225 3.38038 17.9338 2.7927 17.7933C2.7927 17.7933 2.78387 17.7933 2.77945 17.7933C2.35084 17.6835 1.90898 17.5957 1.46711 17.543C1.30804 17.5211 1.15339 17.4991 0.99432 17.4772C0.742458 17.4465 0.481758 17.4772 0.229896 17.464C0.150361 17.464 0.0840816 17.4201 0.0443139 17.363C-0.0219656 17.2665 -0.0175469 17.1304 0.0885002 17.0426C0.119431 17.0206 0.145942 16.9987 0.176873 16.9767C0.852923 16.4938 1.57758 16.1514 2.37293 15.9845C2.58061 15.9494 2.7927 15.9187 3.00038 15.8923C3.97248 15.8089 4.93132 15.7914 5.87691 16.0153C5.90342 16.0197 5.92993 16.0284 5.95202 16.0328C5.99621 16.0416 6.0404 16.0548 6.08458 16.068C6.11993 16.0767 6.15528 16.0899 6.19063 16.0987C6.22598 16.1075 6.26133 16.1206 6.29668 16.1294C6.33203 16.1426 6.36737 16.1514 6.40272 16.1645C6.45575 16.1821 6.50877 16.1997 6.5618 16.2172H6.57063C6.66342 16.2479 6.76063 16.2787 6.86668 16.3006C6.92412 16.3138 6.96831 16.2611 6.95947 16.2128C6.95947 16.1997 6.95063 16.1821 6.9418 16.1733C6.91087 16.1382 6.87552 16.1031 6.84017 16.068C6.73854 15.9758 6.63691 15.8836 6.53528 15.787C6.2083 15.4621 5.89016 15.1329 5.59853 14.786C5.43946 14.5973 5.29365 14.4041 5.16109 14.2065C5.15225 14.1934 5.14341 14.1802 5.13458 14.167C5.13458 14.1626 5.13016 14.1582 5.12574 14.1538C5.09481 14.1099 5.0683 14.0617 5.03737 14.0178C5.01969 13.987 5.00202 13.9607 4.98434 13.9299C4.90923 13.807 4.84295 13.6841 4.77667 13.5612C4.75899 13.5348 4.74574 13.5041 4.73248 13.4734C4.71039 13.4339 4.69271 13.3944 4.67504 13.3592C4.50713 13.0124 4.37457 12.6568 4.28178 12.2924C4.27294 12.2529 4.26411 12.2134 4.25085 12.1695C4.23759 12.1124 4.22434 12.051 4.2155 11.9939C4.21108 11.9719 4.20666 11.9456 4.20225 11.9236C4.18015 11.8007 4.1669 11.6734 4.15364 11.5461C4.14922 11.4759 4.14039 11.4056 4.14039 11.331C4.14039 11.2827 4.14038 11.2344 4.13597 11.1861C4.13597 11.1466 4.13597 11.1027 4.13597 11.0632C4.13597 11.0544 4.13597 11.0456 4.13597 11.0368C4.13597 10.9929 4.13597 10.949 4.13597 10.9051C4.13597 10.8612 4.14039 10.8173 4.1448 10.7778C4.15364 10.6461 4.17132 10.5144 4.19341 10.3783C4.20225 10.3344 4.20666 10.2905 4.2155 10.2422C4.25527 10.0315 4.33922 9.74614 4.50271 9.6276C4.52481 9.61443 4.5469 9.60565 4.56899 9.60565C4.71039 9.60565 4.83853 9.89979 4.91806 10.0139C5.60295 11.05 6.45575 11.928 7.4632 12.6568C7.84762 12.9378 8.24971 13.1968 8.66506 13.4251C8.83739 13.5173 9.00972 13.6095 9.18646 13.6929C9.23065 13.7148 9.27483 13.7368 9.31902 13.7543C9.34995 13.7675 9.3853 13.7851 9.41623 13.7982C9.45158 13.8158 9.49135 13.829 9.5267 13.8465C9.57972 13.8685 9.63274 13.8904 9.69019 13.9124C9.73437 13.9299 9.77414 13.9475 9.81833 13.9651C9.87577 13.987 9.93321 14.009 9.98623 14.0265C9.99949 14.0265 10.0127 14.0353 10.026 14.0397C10.1144 14.0704 10.2072 14.1012 10.3221 14.1363C10.3662 14.1495 10.4104 14.1231 10.4193 14.0792C10.4237 14.0617 10.4193 14.0441 10.4148 14.0265C10.3927 13.9826 10.3707 13.9431 10.3441 13.9036C10.3353 13.8904 10.2204 13.6841 10.1718 13.6051C9.67251 12.8105 9.25716 11.9895 9.16437 11.0412C9.15111 10.9007 9.14228 10.7515 9.13786 10.6022C9.1246 9.89101 9.2439 9.07883 9.68577 8.57397C9.70344 8.55201 9.72553 8.53445 9.75205 8.52128C9.80949 8.49055 9.88019 8.48177 9.92437 8.53445C9.98623 8.60909 10.0569 8.85054 10.1939 9.20176C10.2867 9.44321 10.4104 9.73735 10.5783 10.0622C11.0335 10.9315 11.5548 11.6515 12.4209 12.2529C12.6463 12.4066 12.9114 12.4856 13.1853 12.4768C13.3886 12.468 13.6183 12.4373 13.773 12.3407C14.8291 11.6734 15.8851 11.0105 17.0207 10.4793C18.5009 9.78565 20.0386 9.27639 21.6426 8.97347C23.304 8.65738 24.9831 8.4686 26.6754 8.52128C27.5149 8.54762 28.3545 8.67494 29.1896 8.77591C30.5329 8.93396 31.8187 9.24127 33.0471 9.67589C34.9117 10.33 36.6571 11.2739 38.3141 12.4417C39.3878 13.2012 40.3908 14.0397 41.3276 14.9529C41.7518 15.3699 42.1671 15.8002 42.5648 16.2436C43.6474 17.4552 44.6548 18.7328 45.5916 20.0542C45.9804 20.603 46.3604 21.1561 46.7272 21.7225C47.4209 22.7849 48.0572 23.8736 48.636 24.9843C50.4609 28.5052 51.6672 32.2588 52.1886 36.2626L52.2063 36.267Z" fill="#2B5AA6"/>
<path d="M28.7253 68.6356C28.7253 68.6356 29.3572 69 29.9846 69C31.1026 68.9912 32.6712 68.1746 33.1572 65.8435C33.3826 64.7547 32.4989 63.5694 31.4428 63.1084C31.1423 62.9767 30.8242 62.8757 30.506 62.7835C27.9609 62.046 25.4114 61.3128 22.8618 60.5885C22.5172 60.4919 22.1504 60.4392 21.7969 60.4392C21.333 60.4392 20.9574 60.6631 20.6923 61.045C20.1841 61.7826 20.4492 62.5157 20.7851 63.025C21.0104 63.363 21.302 63.6528 21.6423 63.8811L28.7298 68.6356H28.7253Z" fill="#F19725"/>
<path d="M49.8113 29.2823C50.7569 30.9462 51.3755 32.7374 51.7908 34.5988C52.4757 37.6763 52.5597 40.7757 52.109 43.8927C51.9676 44.8542 51.4771 47.7341 49.5683 50.1267C48.6492 51.1233 47.9378 51.5404 47.9378 51.5404C47.9378 51.5404 45.5296 53.5028 40.8503 53.5774C31.5358 53.7267 26.4235 48.7263 24.5809 45.3107C24.5102 45.179 24.4439 45.0517 24.3821 44.9288C22.4953 41.0655 23.7149 37.7729 23.7149 37.7729C29.2337 32.9393 27.2763 27.1487 27.2763 27.1487L29.627 25.5331C29.627 25.5331 32.7289 28.9135 42.4764 24.6024C42.5161 24.5848 42.5559 24.5673 42.5957 24.5453C43.4573 24.5278 44.2836 24.7736 45.0966 25.1161C47.138 25.9721 48.7287 27.3638 49.8157 29.2823H49.8113Z" fill="#C9DCFC"/>
<path d="M32.0405 42.9684C32.7188 42.4978 32.9786 41.7038 32.6209 41.1949C32.2632 40.686 31.4234 40.655 30.7452 41.1256C30.0669 41.5962 29.8071 42.3903 30.1648 42.8992C30.5225 43.408 31.3623 43.4391 32.0405 42.9684Z" fill="#395D97"/>
<path d="M39.6904 37.6897C40.3687 37.219 40.6285 36.425 40.2708 35.9161C39.9131 35.4072 39.0733 35.3762 38.3951 35.8468C37.7168 36.3175 37.457 37.1115 37.8147 37.6204C38.1724 38.1293 39.0122 38.1603 39.6904 37.6897Z" fill="#395D97"/>
<path d="M46.4253 32.9893C47.1035 32.5186 47.3634 31.7246 47.0057 31.2157C46.648 30.7068 45.8082 30.6758 45.1299 31.1464C44.4517 31.6171 44.1918 32.4111 44.5495 32.92C44.9072 33.4289 45.747 33.4599 46.4253 32.9893Z" fill="#395D97"/>
<path d="M45.6245 46.0934C46.3027 45.6228 46.5626 44.8287 46.2049 44.3199C45.8472 43.811 45.0074 43.78 44.3291 44.2506C43.6509 44.7212 43.391 45.5153 43.7488 46.0241C44.1065 46.533 44.9463 46.564 45.6245 46.0934Z" fill="#395D97"/>
<path d="M46.0122 39.563C46.6904 39.0924 46.9503 38.2984 46.5926 37.7895C46.2349 37.2806 45.3951 37.2496 44.7168 37.7202C44.0386 38.1908 43.7787 38.9849 44.1365 39.4938C44.4942 40.0026 45.334 40.0337 46.0122 39.563Z" fill="#395D97"/>
<path d="M38.3945 44.8498C39.0728 44.3791 39.3326 43.5851 38.9749 43.0762C38.6172 42.5673 37.7774 42.5363 37.0992 43.0069C36.4209 43.4775 36.1611 44.2716 36.5188 44.7805C36.8765 45.2894 37.7163 45.3204 38.3945 44.8498Z" fill="#395D97"/>
<path d="M53.0635 37.9177C53.196 38.4533 53.2049 39.0153 53.09 39.5553L51.0751 49.0073L51.0309 49.2092C50.8542 50.0346 50.2488 50.7019 49.4446 50.9609L48.7155 51.1979L37.2359 54.9252C36.4362 55.1842 35.5701 54.7715 35.2785 53.9813L30.3738 40.7801C29.9629 39.6782 30.5064 38.4753 31.5624 38.0231C31.6375 37.9924 31.7126 37.9616 31.7922 37.9397L43.6474 34.3398L44.1643 34.1817C45.1674 33.8788 45.9406 33.1017 46.2411 32.1227C46.2809 31.9954 46.3162 31.8593 46.3383 31.7276L47.6153 24.2819L47.7655 23.5137L47.7832 23.4346C47.96 22.5346 49.2414 22.5039 49.4623 23.3907L53.0635 37.9177Z" fill="#E53659"/>
<path d="M47.7656 23.5137L47.6154 24.2819L46.3384 31.7276C46.1396 32.8866 45.3 33.8393 44.1644 34.1817L31.7923 37.9397C31.7127 37.9616 31.6376 37.9924 31.5625 38.0231L33.2062 35.1871L43.7668 31.7188L45.0261 24.5541L47.7612 23.5093L47.7656 23.5137Z" fill="#F8FFFB"/>
<path d="M51.0752 49.0073L51.031 49.2092C50.8322 50.0433 50.2092 50.715 49.3873 50.9828L48.7157 51.2023L43.6431 34.3442L44.16 34.1861C45.1631 33.8832 45.9363 33.1061 46.2368 32.1271L51.0708 49.0073H51.0752Z" fill="#C12F52"/>
<path d="M33.4845 43.7698C33.5375 46.0351 33.0294 48.2126 32.1854 50.3375C29.9275 56.0227 25.8623 57.6339 25.7386 57.6822C25.1333 57.9149 23.7414 58.0378 23.22 57.7612C18.4788 55.2852 15.0853 51.0575 14.0116 47.62C13.0969 44.6742 14.3164 41.8733 18.5937 44.2044C20.0386 44.9903 21.7442 45.1659 23.2819 44.582C25.9065 43.5854 28.6637 42.2859 30.1307 41.5396C30.5947 41.3025 31.0189 41.0216 31.4475 40.723C32.0926 40.2752 33.3961 39.8626 33.4845 43.7698Z" fill="#333A95"/>
<path d="M42.4323 18.7328C42.4323 18.7328 42.4367 18.7679 42.4411 18.7898C41.4469 18.623 40.4129 18.702 39.4364 19.0489C38.9371 19.2245 38.4511 19.4703 37.9959 19.7864C36.3876 20.9015 35.4994 22.6576 35.4287 24.4663C35.411 24.9317 35.4464 25.397 35.5392 25.858C33.8115 25.6736 32.1678 24.7868 31.0808 23.2766C29.0526 20.4537 29.711 16.5596 32.5522 14.5402C35.358 12.5471 39.3083 13.2056 41.3143 16.0021C41.9197 16.845 42.2864 17.7845 42.4234 18.7372L42.4323 18.7328Z" fill="white"/>
<path d="M39.4362 19.0445C38.9369 19.2201 38.4509 19.4659 37.9958 19.782C36.3874 20.8971 35.4992 22.6532 35.4285 24.4619C35.3711 24.4619 35.3137 24.4619 35.2562 24.4619C33.1529 24.3653 31.3811 22.6971 31.1911 20.6337C31.0055 18.5923 32.3797 16.6826 34.399 16.2436C34.5669 16.8494 34.8983 17.2884 35.5478 17.3543C36.2637 17.4289 36.6879 17.025 36.953 16.4236C37.9869 16.7353 39.0165 17.7274 39.4318 19.0489L39.4362 19.0445Z" fill="black"/>
<path d="M14.5593 35.648C14.5593 35.648 14.5902 35.67 14.6035 35.6831C14.9481 34.7436 15.527 33.8876 16.3091 33.2159C16.7112 32.8691 17.1619 32.5749 17.6656 32.3378C19.4375 31.4993 21.4126 31.5959 23.0298 32.43C23.4452 32.6452 23.834 32.9086 24.1919 33.2159C24.8857 31.6354 24.9166 29.774 24.1301 28.0926C22.6587 24.9448 18.9249 23.5927 15.7523 25.0546C12.624 26.4989 11.2498 30.235 12.7079 33.3476C13.1453 34.2871 13.786 35.0641 14.5549 35.6568L14.5593 35.648Z" fill="white"/>
<path d="M16.3092 33.2115C16.7113 32.8647 17.162 32.5705 17.6657 32.3335C19.4376 31.4949 21.4127 31.5915 23.0299 32.4256C23.0564 32.3774 23.0874 32.3247 23.1139 32.272C24.0683 30.4106 23.4806 28.0531 21.7662 26.8677C20.0694 25.6999 17.7232 25.9458 16.3401 27.4736C16.7864 27.9214 17.0073 28.4218 16.7466 29.0189C16.4594 29.6774 15.8938 29.8399 15.2399 29.774C15.0057 30.8232 15.3636 32.2018 16.3136 33.2115H16.3092Z" fill="black"/>
<path d="M29.6004 8.53445C25.1641 11.9983 24.3378 18.3377 27.696 22.8024L26.4146 23.8034C22.8355 19.5098 16.4418 18.8074 12.0054 22.2756C7.49844 25.7965 6.72076 32.2764 10.2601 36.7543C13.8038 41.2323 20.3257 42.005 24.8327 38.4885C29.0569 35.1871 30.0069 29.2867 27.1923 24.8702L28.5355 23.7902C32.1853 27.5658 38.1947 28.0487 42.4277 24.7429C46.9347 21.222 47.7124 14.7421 44.1731 10.2642C40.6293 5.78622 34.1074 5.01355 29.6004 8.53006V8.53445ZM23.843 37.2329C20.0341 40.2094 14.5196 39.5509 11.5238 35.7666C8.52798 31.9823 9.19078 26.5033 12.9996 23.5268C16.8085 20.5503 22.3229 21.2088 25.3188 24.9931C28.3146 28.7774 27.6518 34.2563 23.843 37.2329ZM41.438 23.4917C37.6291 26.4682 32.1146 25.8097 29.1188 22.0254C26.123 18.2411 26.7858 12.7622 30.5946 9.78565C34.4035 6.80913 39.9179 7.46765 42.9138 11.252C45.9096 15.0363 45.2468 20.5152 41.438 23.4917Z" fill="#F19725"/>
<path d="M34.8586 27.4911C36.6614 30.6652 35.243 32.9393 34.5139 33.4442C33.8246 33.9227 31.1823 34.4627 28.805 31.6925L27.2188 29.8969L29.7595 26.7975L33.6876 25.4804C33.6876 25.4804 34.8541 27.4867 34.8586 27.4911Z" fill="#F28006"/>
<path d="M33.6565 27.2102C35.4593 30.3842 34.6684 32.0481 33.9393 32.5574C33.25 33.0359 31.3897 33.2817 29.0125 30.5072L27.3467 28.3955L29.1848 25.9063L32.2779 24.9712C32.2779 24.9712 33.6565 27.2014 33.6609 27.2058L33.6565 27.2102Z" fill="#990600"/>
<path d="M34.4298 25.5814C34.337 25.7263 33.4665 27.1487 33.0247 27.5921C32.627 27.9916 27.9167 30.3491 27.3953 30.4676C27.3069 30.4896 27.223 30.4984 27.1479 30.5028C26.7679 30.5203 26.4983 30.3316 26.2509 29.9452C25.8621 29.3394 25.0534 26.2707 28.0935 24.0097C31.2793 21.9508 33.8995 23.7639 34.337 24.3346C34.6772 24.778 34.7302 25.138 34.4386 25.5858L34.4298 25.5814Z" fill="#FFBF00"/>
<path d="M31.6903 24.6287C31.6594 25.2785 31.1203 25.4014 30.8375 25.419C29.8433 25.4848 29.3749 25.836 29.3749 25.836C29.3749 25.836 28.8801 26.1521 28.478 27.0565C28.3631 27.3155 28.0626 27.7765 27.4396 27.5833C27.0949 27.4736 26.7459 27.0697 26.9447 26.455C27.3645 25.1468 28.4161 24.4751 28.4161 24.4751C28.4161 24.4751 29.4147 23.7244 30.7933 23.7814C31.4429 23.8078 31.708 24.2688 31.6903 24.6287Z" fill="#FFDC2B"/>
<path d="M60.513 3.56919C60.8091 3.56041 61.083 3.40676 61.2465 3.15652L62.5191 1.19412C62.9256 0.56633 63.8756 0.676083 64.1319 1.37851L64.9228 3.57797C65.02 3.85894 65.2542 4.06967 65.5459 4.1443L67.817 4.74136C68.5417 4.93453 68.7317 5.86524 68.1396 6.32182L66.2794 7.74862C66.0407 7.92861 65.9126 8.21397 65.9303 8.50811L66.0628 10.8437C66.1026 11.5856 65.2675 12.0554 64.6489 11.6383L62.7047 10.3212C62.4572 10.1544 62.1479 10.1193 61.8696 10.2247L59.6779 11.072C58.9754 11.3398 58.2728 10.6988 58.4805 9.9832L59.1433 7.73984C59.2272 7.45448 59.1609 7.15156 58.9754 6.92327L57.4907 5.11453C57.0135 4.53503 57.4156 3.67017 58.1623 3.64822L60.513 3.57358V3.56919Z" fill="#F19725"/>
<path d="M56.7704 16.8889L58.2992 16.5992C58.4936 16.5596 58.6571 16.4367 58.7366 16.2567L59.3641 14.8431C59.5629 14.3953 60.1992 14.3646 60.4378 14.7992L61.1846 16.1558C61.2818 16.327 61.4541 16.4411 61.6485 16.4587L63.195 16.6167C63.6899 16.665 63.9109 17.2577 63.5706 17.6133L62.5057 18.7415C62.3732 18.882 62.3157 19.084 62.3555 19.2728L62.6869 20.783C62.7885 21.2659 62.2981 21.6566 61.8474 21.4459L60.4422 20.7874C60.2611 20.7039 60.0534 20.7127 59.8855 20.8093L58.5422 21.5864C58.1136 21.8322 57.5834 21.4854 57.6452 20.9981L57.8397 19.4659C57.8618 19.2728 57.7911 19.0796 57.6452 18.9479L56.4831 17.9206C56.1164 17.5913 56.2843 16.9855 56.7704 16.8933V16.8889Z" fill="#F19725"/>
<path d="M37.9516 2.81848L38.9723 2.52873C39.1005 2.49361 39.2021 2.39702 39.2507 2.26532L39.5909 1.26875C39.697 0.948272 40.1256 0.8912 40.3156 1.17217L40.9077 2.04581C40.9828 2.15556 41.1065 2.22142 41.2435 2.22142L42.304 2.2302C42.6442 2.2302 42.8298 2.62092 42.6221 2.88433L41.9726 3.71407C41.8886 3.81943 41.8665 3.95992 41.9063 4.08723L42.2244 5.09258C42.3261 5.41306 42.0168 5.7072 41.6942 5.59305L40.7 5.23306C40.5763 5.18916 40.4305 5.20672 40.3244 5.28135L39.4584 5.89158C39.18 6.08475 38.8044 5.8828 38.8177 5.54476L38.853 4.49551C38.8574 4.36381 38.7956 4.23211 38.6895 4.15308L37.8367 3.52529C37.5628 3.32773 37.6423 2.90189 37.9649 2.81409H37.956L37.9516 2.81848Z" fill="#F19725"/>
</g>
<defs>
<clipPath id="clip0_763_6384">
<rect width="194" height="69" fill="white"/>
</clipPath>
</defs>
</svg>
